HIERARCHY
ROOT Hips
{
 OFFSET 0.000000 0.000000 0.000000
 CHANNELS 6 Xposition Yposition Zposition Yrotation Xrotation Zrotation
 JOINT Chest
 {
  OFFSET 0.000000 9.585900 0.002600
  CHANNELS 3 Yrotation Xrotation Zrotation
  JOINT Chest2
  {
   OFFSET 0.000000 9.601200 -0.005300
   CHANNELS 3 Yrotation Xrotation Zrotation
   JOINT Chest3
   {
    OFFSET 0.000000 9.561800 0.000000
    CHANNELS 3 Yrotation Xrotation Zrotation
    JOINT Chest4
    {
     OFFSET 0.000000 9.552100 0.000000
     CHANNELS 3 Yrotation Xrotation Zrotation
     JOINT Neck
     {
      OFFSET 0.000000 14.453000 0.000000
      CHANNELS 3 Yrotation Xrotation Zrotation
      JOINT Head
      {
       OFFSET 0.000000 8.936500 -0.011300
       CHANNELS 3 Yrotation Xrotation Zrotation
       End Site
       {
        OFFSET 0.000000 17.073600 -0.006000
       }
      }
     }
     JOINT RightCollar
     {
      OFFSET -2.921100 9.558500 0.000000
      CHANNELS 3 Yrotation Xrotation Zrotation
      JOINT RightShoulder
      {
       OFFSET -13.519700 0.000000 0.000000
       CHANNELS 3 Yrotation Xrotation Zrotation
       JOINT RightElbow
       {
        OFFSET 0.000000 -29.696600 0.000000
        CHANNELS 3 Yrotation Xrotation Zrotation
        JOINT RightWrist
        {
         OFFSET 0.000000 -24.004700 0.000000
         CHANNELS 3 Yrotation Xrotation Zrotation
         End Site
         {
          OFFSET 0.000000 -17.728500 0.000000
         }
        }
       }
      }
     }
     JOINT LeftCollar
     {
      OFFSET 2.921100 9.558500 0.000000
      CHANNELS 3 Yrotation Xrotation Zrotation
      JOINT LeftShoulder
      {
       OFFSET 13.519700 0.000000 0.000000
       CHANNELS 3 Yrotation Xrotation Zrotation
       JOINT LeftElbow
       {
        OFFSET 0.000000 -29.696600 0.000000
        CHANNELS 3 Yrotation Xrotation Zrotation
        JOINT LeftWrist
        {
         OFFSET 0.000000 -24.004700 0.000000
         CHANNELS 3 Yrotation Xrotation Zrotation
         End Site
         {
          OFFSET 0.000000 -17.728500 0.000000
         }
        }
       }
      }
     }
    }
   }
  }
 }
 JOINT RightHip
 {
  OFFSET -7.771700 -0.012900 -0.001300
  CHANNELS 3 Yrotation Xrotation Zrotation
  JOINT RightKnee
  {
   OFFSET 0.000000 -40.869800 0.001200
   CHANNELS 3 Yrotation Xrotation Zrotation
   JOINT RightAnkle
   {
    OFFSET 0.000000 -39.717900 0.002100
    CHANNELS 3 Yrotation Xrotation Zrotation
    JOINT RightToe
    {
     OFFSET 0.000000 -4.965400 11.033500
     CHANNELS 3 Yrotation Xrotation Zrotation
     End Site
     {
      OFFSET 0.000000 -1.423100 5.872300
     }
    }
   }
  }
 }
 JOINT LeftHip
 {
  OFFSET 7.771700 -0.012900 -0.001300
  CHANNELS 3 Yrotation Xrotation Zrotation
  JOINT LeftKnee
  {
   OFFSET 0.000000 -40.869800 0.001200
   CHANNELS 3 Yrotation Xrotation Zrotation
   JOINT LeftAnkle
   {
    OFFSET 0.000000 -39.717900 0.002100
    CHANNELS 3 Yrotation Xrotation Zrotation
    JOINT LeftToe
    {
     OFFSET 0.000000 -4.965400 11.033500
     CHANNELS 3 Yrotation Xrotation Zrotation
     End Site
     {
      OFFSET 0.000000 -1.423100 5.872300
     }
    }
   }
  }
 }
}
MOTION
Frames: 6
Frame Time: 0.008333
-51.806987 62.172926 13.730422 174.809514 -52.023916 1.290303 3.892853 26.669726 2.402760 0.524049 4.457698 0.363604 0.848310 7.080576 0.549229 2.935781 21.554070 2.255009 -1.366751 14.582862 1.438858 -3.125750 -8.649695 3.157661 6.361885 5.387922 6.076321 9.372639 -21.756238 -20.772272 -111.909182 -62.108272 145.003840 17.989053 3.561640 -9.872435 -10.470031 3.878463 -1.360509 -3.396063 -7.814278 18.343207 100.771992 -71.501194 -127.677110 12.021181 -14.033648 22.211625 3.758353 -14.971182 -7.197963 2.724560 61.910649 -1.676048 1.745775 -10.059707 10.351586 0.035758 -0.138938 0.005820 1.145267 -3.568571 6.505900 121.177737 83.872857 129.651655 -4.558462 -16.729712 -10.368871 0.433622 -21.572521 -1.044766
-51.804336 62.170484 13.726640 174.757866 -51.998198 1.355424 3.900176 26.648805 2.443292 0.521513 4.453977 0.371421 0.843699 7.072494 0.586106 2.928846 21.543587 2.303065 -1.422601 14.575538 1.390732 -3.195723 -8.670733 3.147901 6.398770 5.335218 6.081620 9.549438 -22.093496 -20.851867 -112.046330 -62.052780 145.049419 17.905896 3.418203 -10.111679 -10.490214 3.868803 -1.383068 -3.337508 -7.777143 18.265937 100.539195 -71.505135 -127.431626 12.099968 -14.146071 22.414409 3.790228 -15.007928 -7.223316 2.732471 61.933968 -1.674536 1.749768 -10.072945 10.352524 0.034603 -0.141566 0.004993 1.159279 -3.578724 6.470142 121.072851 83.868781 129.540968 -4.553413 -16.743924 -10.373652 0.440306 -21.562274 -1.056792
-51.798561 62.170108 13.720850 174.755395 -51.989390 1.365013 3.887032 26.641878 2.504920 0.520652 4.451248 0.357764 0.840558 7.069074 0.595066 2.933265 21.529173 2.365221 -1.455145 14.565085 1.376640 -3.251886 -8.689360 3.134247 6.447663 5.274803 6.124709 9.709502 -22.414053 -20.905417 -112.192430 -61.998161 145.099464 17.828935 3.269873 -10.358113 -10.495701 3.863244 -1.367996 -3.264765 -7.730896 18.201068 100.425879 -71.518785 -127.302771 12.161106 -14.251020 22.591764 3.784286 -15.023016 -7.229757 2.736207 61.951682 -1.671697 1.754979 -10.079108 10.342351 0.035806 -0.150641 0.008539 1.154035 -3.579323 6.457595 121.037663 83.866601 129.510628 -4.547865 -16.749461 -10.376118 0.444499 -21.561670 -1.069092
-51.795678 62.168694 13.715058 174.728795 -51.972832 1.411435 3.880717 26.628609 2.548796 0.521894 4.449929 0.300373 0.840906 7.055692 0.695208 2.900626 21.536963 2.305140 -1.449506 14.544367 1.426769 -3.295502 -8.707130 3.116121 6.520088 5.198865 6.227744 9.847014 -22.726076 -20.928697 -112.330699 -61.948902 145.139832 17.749915 3.114173 -10.601146 -10.478582 3.859056 -1.286782 -3.210211 -7.690757 18.117193 100.398305 -71.582944 -127.227376 12.208881 -14.348064 22.748196 3.804290 -15.049507 -7.261222 2.734085 61.977219 -1.667151 1.764002 -10.089366 10.331476 0.033243 -0.156723 0.011339 1.163526 -3.586097 6.427339 120.989528 83.865584 129.460636 -4.543551 -16.753789 -10.372329 0.443133 -21.561045 -1.080555
-51.798109 62.165197 13.710071 174.667164 -51.939391 1.517508 3.880296 26.601768 2.558277 0.517643 4.444324 0.304217 0.837830 7.046807 0.732437 2.889970 21.524904 2.345814 -1.484555 14.540808 1.378010 -3.326436 -8.724424 3.093721 6.566110 5.160107 6.235776 9.953691 -23.035092 -20.924397 -112.448995 -61.905707 145.165549 17.648646 2.941898 -10.838356 -10.486273 3.856063 -1.303341 -3.158849 -7.647121 18.032949 100.458757 -71.676696 -127.227234 12.246276 -14.439719 22.886525 3.849996 -15.100328 -7.329394 2.760238 62.016584 -1.646353 1.766304 -10.105311 10.326729 0.034544 -0.160385 0.012803 1.188844 -3.602425 6.361860 120.869813 83.865585 129.323759 -4.537562 -16.769963 -10.355402 0.448199 -21.544485 -1.102236
-51.795336 62.163858 13.703228 174.636887 -51.924116 1.570278 3.871646 26.588336 2.599148 0.512282 4.438664 0.377056 0.829513 7.050382 0.627041 2.905496 21.499242 2.463330 -1.512983 14.538224 1.328435 -3.343191 -8.738921 3.066868 6.616238 5.128711 6.243613 10.025068 -23.338451 -20.899362 -112.541927 -61.867687 145.183869 17.506064 2.743603 -11.082225 -10.485977 3.854280 -1.321546 -3.109140 -7.606149 17.947072 100.588664 -71.794058 -127.288628 12.278167 -14.521996 23.006070 3.874601 -15.124818 -7.363455 2.775301 62.044652 -1.628173 1.765030 -10.121440 10.319556 0.027883 -0.160648 0.013149 1.192828 -3.603005 6.323988 120.789450 83.862648 129.236442 -4.526204 -16.780117 -10.354785 0.449586 -21.538305 -1.118140
